<?xml version="1.0" encoding="iso-8859-1"?>
<!-- Uploaded to: SVG Repo, www.svgrepo.com, Generator: SVG Repo Mixer Tools -->
<!DOCTYPE svg PUBLIC "-//W3C//DTD SVG 1.1//EN" "http://www.w3.org/Graphics/SVG/1.1/DTD/svg11.dtd">
<svg fill="#000000" version="1.1" id="Capa_1" xmlns="http://www.w3.org/2000/svg" xmlns:xlink="http://www.w3.org/1999/xlink" 
	 width="800px" height="800px" viewBox="0 0 480.224 480.225"
	 xml:space="preserve">
<g>
	<g>
		<path d="M420.8,211.761l-290.2-0.051l-12.164-41.877c-1.813-6.242-6.839-11.175-13.116-12.873l-42.57-11.513
			c-1.604-0.432-3.253-0.652-4.902-0.652c-8.448,0-15.89,5.702-18.098,13.863c-1.308,4.835-0.653,9.894,1.842,14.237
			c2.495,4.344,6.532,7.457,11.368,8.764l32.395,8.76l65.766,237.212c-9.368,4.621-15.441,14.199-15.441,24.861
			c0,15.291,12.44,27.732,27.732,27.732s27.733-12.441,27.733-27.732c0-0.361-0.007-0.721-0.021-1.08h133.879
			c-0.016,0.359-0.021,0.719-0.021,1.08c0,15.291,12.439,27.732,27.731,27.732s27.733-12.441,27.733-27.732
			c0-14.055-10.687-25.838-24.36-27.52c-33.275-5.375-169.084-11.941-169.084-11.941l-4.461-17.455h169.449
			c8.663,0,16.366-5.822,18.732-14.156l36.619-128.996h13.459c11.229,0,20.33-9.105,20.33-20.333
			C441.132,220.863,432.03,211.761,420.8,211.761z M204.969,352.408h-31.764c-0.868-0.017-2.143,0.184-2.725-1.859
			c-0.737-2.594-1.772-6.159-1.772-6.159l-24.893-87.692c-0.122-0.426-0.034-0.895,0.233-1.248c0.269-0.356,0.694-0.569,1.14-0.569
			h38.604c0.672,0,1.245,0.459,1.391,1.116l21.055,94.279l0.076,0.289c0.04,0.131,0.06,0.271,0.06,0.416
			C206.375,351.759,205.746,352.396,204.969,352.408z M286.03,256.617l-17.156,94.676c-0.146,0.656-0.719,1.115-1.392,1.115h-23.958
			c-0.675,0-1.247-0.459-1.395-1.117l-17.155-94.676c-0.095-0.422,0.007-0.859,0.28-1.201c0.271-0.34,0.678-0.535,1.112-0.535h58.27
			c0.437,0,0.84,0.195,1.114,0.537C286.023,255.756,286.124,256.193,286.03,256.617z M367.189,256.697l-26.876,94.672
			c-0.173,0.611-0.738,1.039-1.372,1.039h-32.87c-0.437,0-0.841-0.195-1.113-0.533c-0.272-0.342-0.374-0.781-0.279-1.205
			l21.142-94.674c0.144-0.647,0.729-1.117,1.394-1.117h38.604c0.444,0,0.87,0.213,1.137,0.568
			C367.221,255.802,367.309,256.27,367.189,256.697z"/>
		<path d="M253.147,185.853c3.932,6.797,14.071,6.78,17.988-0.012l49.671-74.677c1.997-3.468,1.81-7.883-0.481-11.159
			c-2.173-3.107-5.54-4.42-9.223-4.416c-3.642,0.002-7.284,0.002-10.924,0.004l-17.239,0.013V20.84
			c0-11.511-9.331-20.84-20.843-20.84c-11.511,0-20.842,9.329-20.842,20.84v74.791l-12.877,0.009l-16.022,0.013
			c-7.839,0.002-12.917,8.777-8.983,15.587L253.147,185.853z"/>
	</g>
</g>
</svg>