<?xml version="1.0" encoding="iso-8859-1"?>
<!-- Uploaded to: SVG Repo, www.svgrepo.com, Generator: SVG Repo Mixer Tools -->
<svg height="800px" width="800px" version="1.1" id="Layer_1" xmlns="http://www.w3.org/2000/svg" xmlns:xlink="http://www.w3.org/1999/xlink" 
	 viewBox="0 0 512 512" xml:space="preserve">
<polygon points="138.424,156 99.856,41.872 0,41.872 0,11.368 121.752,11.368 167.312,146.232 "/>
<polygon style="fill:#FFD67F;" points="64.448,130.384 487.944,130.384 407.224,356.872 134.968,356.872 "/>
<circle cx="359.704" cy="441.904" r="58.728"/>
<circle cx="182.576" cy="441.904" r="58.728"/>
<path style="fill:#FF583E;" d="M470.44,319.832H219.552c-22.856,0-41.56-18.704-41.56-41.56v-68.576
	c0-22.856,18.704-41.56,41.56-41.56H470.44c22.856,0,41.56,18.704,41.56,41.56v68.576C512,301.128,493.296,319.832,470.44,319.832z"
	/>
<g>
	<path style="fill:#FFFFFF;" d="M255.512,261.464c4.344,2.224,11.04,4.456,17.936,4.456c7.432,0,11.368-3.088,11.368-7.76
		c0-4.456-3.4-7-12-10.088c-11.888-4.144-19.64-10.72-19.64-21.128c0-12.216,10.192-21.56,27.072-21.56
		c8.08,0,14.024,1.704,18.264,3.608l-3.608,13.056c-2.872-1.376-7.968-3.392-14.976-3.392s-10.4,3.192-10.4,6.896
		c0,4.576,4.04,6.584,13.272,10.088c12.64,4.672,18.584,11.256,18.584,21.344c0,12-9.232,22.2-28.888,22.2
		c-8.184,0-16.248-2.136-20.288-4.36L255.512,261.464z"/>
	<path style="fill:#FFFFFF;" d="M342.152,278.136l-0.952-5.208h-0.32c-3.4,4.144-8.712,6.376-14.872,6.376
		c-10.504,0-16.776-7.648-16.776-15.928c0-13.488,12.104-19.968,30.488-19.856v-0.752c0-2.76-1.488-6.68-9.448-6.68
		c-5.312,0-10.936,1.8-14.344,3.928l-2.976-10.4c3.608-2.016,10.72-4.576,20.176-4.576c17.312,0,22.84,10.2,22.84,22.408v18.048
		c0,4.992,0.208,9.768,0.736,12.64H342.152z M340.232,253.608c-8.488-0.104-15.08,1.904-15.08,8.184c0,4.144,2.768,6.16,6.376,6.16
		c4.04,0,7.328-2.656,8.384-5.96c0.216-0.848,0.32-1.8,0.32-2.76L340.232,253.608L340.232,253.608z"/>
	<path style="fill:#FFFFFF;" d="M368.688,202.744h16.144v75.392h-16.144V202.744z"/>
	<path style="fill:#FFFFFF;" d="M410.304,257.328c0.536,6.68,7.112,9.872,14.656,9.872c5.512,0,9.976-0.752,14.328-2.12l2.12,10.936
		c-5.312,2.12-11.784,3.192-18.792,3.192c-17.632,0-27.72-10.2-27.72-26.448c0-13.16,8.184-27.72,26.232-27.72
		c16.768,0,23.144,13.072,23.144,25.912c0,2.76-0.32,5.208-0.536,6.376H410.304z M429.304,246.272
		c0-3.928-1.688-10.504-9.136-10.504c-6.792,0-9.552,6.152-9.976,10.504H429.304z"/>
</g>
</svg>